<svg xmlns="http://www.w3.org/2000/svg" width="20" height="10.88" viewBox="0 0 20 10.88"><defs><style>.cls-1{fill:#fff;fill-rule:evenodd}</style></defs><path id="Фигура_1" data-name="Фигура 1" class="cls-1" d="M1424.8 5017.85h1.2a1.021 1.021 0 0 0 .54-.23.817.817 0 0 0 .17-.5s-.03-1.53.72-1.76c.73-.22 1.67 1.49 2.67 2.14a1.951 1.951 0 0 0 1.33.39l2.67-.04s1.4-.08.74-1.13a8.758 8.758 0 0 0-1.99-2.2c-1.67-1.48-1.45-1.24.57-3.81 1.23-1.57 1.72-2.52 1.56-2.93a1.2 1.2 0 0 0-1.05-.29l-3 .02a.732.732 0 0 0-.39.06.926.926 0 0 0-.27.31 15.616 15.616 0 0 1-1.11 2.24c-1.34 2.18-1.87 2.29-2.09 2.16-.51-.32-.38-1.27-.38-1.94 0-2.11.33-2.98-.65-3.21a5.209 5.209 0 0 0-1.41-.14 6.737 6.737 0 0 0-2.49.25c-.35.16-.61.52-.45.54a1.344 1.344 0 0 1 .89.42 2.656 2.656 0 0 1 .3 1.3s.17 2.48-.42 2.79c-.4.21-.96-.22-2.15-2.19a18.823 18.823 0 0 1-1.08-2.13.89.89 0 0 0-.24-.32 1.5 1.5 0 0 0-.47-.18l-2.85.02a1.007 1.007 0 0 0-.59.19.578.578 0 0 0-.01.49s2.24 5 4.77 7.52a7.041 7.041 0 0 0 4.96 2.16z" transform="translate(-1415.03 -5007)"/></svg>