<svg xmlns="http://www.w3.org/2000/svg" width="20" height="10.88" viewBox="0 0 20 10.88">
  <metadata><?xpacket begin="﻿" id="W5M0MpCehiHzreSzNTczkc9d"?>
<x:xmpmeta xmlns:x="adobe:ns:meta/" x:xmptk="Adobe XMP Core 5.6-c138 79.159824, 2016/09/14-01:09:01        ">
   <rdf:RDF xmlns:rdf="http://www.w3.org/1999/02/22-rdf-syntax-ns#">
      <rdf:Description rdf:about=""/>
   </rdf:RDF>
</x:xmpmeta>
                                                                                                    
                                                                                                    
                                                                                                    
                                                                                                    
                                                                                                    
                                                                                                    
                                                                                                    
                                                                                                    
                                                                                                    
                                                                                                    
                                                                                                    
                                                                                                    
                                                                                                    
                                                                                                    
                                                                                                    
                                                                                                    
                                                                                                    
                                                                                                    
                                                                                                    
                                                                                                    
                           
<?xpacket end="w"?></metadata>
<defs>
    <style>
      .cls-1 {
        fill: #fff;
        fill-rule: evenodd;
      }
    </style>
  </defs>
  <path id="Фигура_1" data-name="Фигура 1" class="cls-1" d="M1424.8,5017.85h1.2a1.021,1.021,0,0,0,.54-0.23,0.817,0.817,0,0,0,.17-0.5s-0.03-1.53.72-1.76c0.73-.22,1.67,1.49,2.67,2.14a1.951,1.951,0,0,0,1.33.39l2.67-.04s1.4-.08.74-1.13a8.758,8.758,0,0,0-1.99-2.2c-1.67-1.48-1.45-1.24.57-3.81,1.23-1.57,1.72-2.52,1.56-2.93a1.2,1.2,0,0,0-1.05-.29l-3,.02a0.732,0.732,0,0,0-.39.06,0.926,0.926,0,0,0-.27.31,15.616,15.616,0,0,1-1.11,2.24c-1.34,2.18-1.87,2.29-2.09,2.16-0.51-.32-0.38-1.27-0.38-1.94,0-2.11.33-2.98-.65-3.21a5.209,5.209,0,0,0-1.41-.14,6.737,6.737,0,0,0-2.49.25c-0.35.16-.61,0.52-0.45,0.54a1.344,1.344,0,0,1,.89.42,2.656,2.656,0,0,1,.3,1.3s0.17,2.48-.42,2.79c-0.4.21-.96-0.22-2.15-2.19a18.823,18.823,0,0,1-1.08-2.13,0.89,0.89,0,0,0-.24-0.32,1.5,1.5,0,0,0-.47-0.18l-2.85.02a1.007,1.007,0,0,0-.59.19,0.578,0.578,0,0,0-.01.49s2.24,5,4.77,7.52A7.041,7.041,0,0,0,1424.8,5017.85Z" transform="translate(-1415.03 -5007)"/>
</svg>
